<svg height="316.227766" viewBox="0 0 170.08 170.08" width="316.227766" xmlns="http://www.w3.org/2000/svg"><path d="m55.81 116.93-31.89-15.94v-5.32h55.81s0 2.04 0 2.04l-2.73 1.36c-2.45 1.23-4.25 3.35-4.92 5.82-.56 2.07-.39 4.27.48 6.2.86 1.9 2.36 3.46 4.22 4.39l2.93 1.46h-23.9zm-6.64-45.18h-22.59v5.31h22.59zm0 7.97h-22.59v5.32s22.59 0 22.59 0zm0 7.97h-22.59s0 5.31 0 5.31h22.59zm70.42 7.97h5.31v-23.92h-5.31zm7.97 0h5.31v-23.92h-5.31zm17.27 0 4.6-2.66-10.63-18.6-4.6 2.66zm19.88-7.87c-.06 1.64-.16 3.28-.31 4.91l5.21 1.46-.52 3.95-5.41.06c-.27 1.62-.58 3.23-.95 4.83l4.96 2.12-1.03 3.85-5.36-.65c-.48 1.57-1.01 3.12-1.59 4.66l4.65 2.75-1.53 3.68-5.23-1.34c-.68 1.5-1.41 2.97-2.18 4.41l4.25 3.34-1.99 3.45-5.02-2.01c-.87 1.39-1.78 2.76-2.73 4.09l3.78 3.87-2.43 3.16-4.72-2.65c-1.04 1.26-2.13 2.49-3.25 3.69l3.25 4.34-2.82 2.82-4.34-3.25c-1.2 1.12-2.43 2.21-3.69 3.25l2.65 4.72-3.16 2.43-3.87-3.78c-1.33.95-2.7 1.86-4.09 2.73l2.01 5.02-3.45 1.99-3.34-4.25c-1.45.77-2.92 1.5-4.41 2.18l1.34 5.23-3.68 1.53-2.75-4.65c-1.54.58-3.09 1.11-4.66 1.59l.65 5.36-3.85 1.03-2.12-4.96c-1.6.37-3.21.68-4.83.95l-.06 5.41-3.95.52-1.46-5.21c-1.63.15-3.26.26-4.91.31l-.77 5.37h-3.99l-.77-5.37c-1.64-.06-3.28-.16-4.91-.31l-1.46 5.21-3.95-.52-.06-5.41c-1.62-.27-3.23-.58-4.83-.95l-2.12 4.96-3.85-1.03.65-5.36c-1.57-.48-3.12-1.01-4.66-1.59l-2.75 4.65-3.68-1.53 1.34-5.23c-1.5-.68-2.97-1.41-4.41-2.18l-3.34 4.25-3.45-1.99 2.01-5.02c-1.39-.87-2.76-1.78-4.09-2.73l-3.87 3.78-3.16-2.43 2.65-4.72c-1.26-1.04-2.49-2.13-3.69-3.25l-4.34 3.25-2.82-2.82 3.25-4.34c-1.12-1.2-2.21-2.43-3.25-3.69l-4.72 2.65-2.43-3.16 3.78-3.87c-.95-1.33-1.86-2.7-2.73-4.09l-5.02 2.01-1.99-3.45 4.25-3.34c-.77-1.45-1.5-2.92-2.18-4.41l-5.23 1.34-1.53-3.68 4.65-2.75c-.58-1.54-1.11-3.09-1.59-4.66l-5.36.65-1.03-3.85 4.96-2.12c-.37-1.6-.68-3.21-.95-4.83l-5.41-.06-.52-3.95 5.21-1.46c-.15-1.63-.26-3.26-.31-4.91l-5.37-.77v-3.99l5.37-.77c.06-1.64.16-3.28.31-4.91l-5.21-1.46.52-3.95 5.41-.06c.27-1.62.58-3.23.95-4.83l-4.96-2.12 1.03-3.85 5.36.65c.48-1.57 1.01-3.12 1.59-4.66l-4.65-2.75 1.53-3.68 5.23 1.34c.68-1.5 1.41-2.97 2.18-4.41l-4.25-3.34 1.99-3.45 5.02 2.01c.87-1.39 1.78-2.76 2.73-4.09l-3.78-3.87 2.43-3.16 4.72 2.65c1.04-1.26 2.13-2.49 3.25-3.69l-3.25-4.34 2.82-2.82 4.34 3.25c1.2-1.12 2.43-2.21 3.69-3.25l-2.65-4.72 3.16-2.43 3.87 3.78c1.33-.95 2.7-1.87 4.09-2.73l-2.01-5.02 3.45-1.99 3.34 4.25c1.45-.77 2.92-1.5 4.41-2.18l-1.34-5.23 3.68-1.53 2.75 4.65c1.54-.58 3.09-1.11 4.66-1.59l-.65-5.36 3.85-1.03 2.12 4.96c1.6-.37 3.21-.68 4.83-.95l.06-5.41 3.95-.52 1.46 5.21c1.63-.15 3.26-.26 4.91-.31l.77-5.37h3.99l.77 5.37c1.64.06 3.28.16 4.91.31l1.46-5.21 3.95.52.06 5.41c1.62.27 3.23.58 4.83.95l2.12-4.96 3.85 1.03-.65 5.36c1.57.48 3.12 1.01 4.66 1.59l2.75-4.65 3.68 1.53-1.34 5.23c1.5.68 2.97 1.41 4.41 2.18l3.34-4.25 3.45 1.99-2.01 5.02c1.39.87 2.76 1.78 4.09 2.73l3.87-3.78 3.16 2.43-2.65 4.72c1.26 1.04 2.49 2.13 3.69 3.25l4.34-3.25 2.82 2.82-3.25 4.34c1.12 1.2 2.21 2.43 3.25 3.69l4.72-2.65 2.43 3.16-3.78 3.87c.95 1.33 1.86 2.7 2.73 4.09l5.02-2.01 1.99 3.45-4.25 3.34c.77 1.45 1.5 2.92 2.18 4.41l5.23-1.34 1.53 3.68-4.65 2.75c.58 1.54 1.11 3.09 1.59 4.66l5.36-.65 1.03 3.85-4.96 2.12c.37 1.6.68 3.21.95 4.83l5.41.06.52 3.95-5.21 1.46c.15 1.63.26 3.26.31 4.91l5.37.77v3.99zm-5.26-2.76c0-41.1-33.31-74.41-74.41-74.41-41.1.01-74.41 33.32-74.41 74.42s33.31 74.41 74.41 74.41 74.41-33.31 74.41-74.41zm-121.96-40.41 29.15 14.58v-2.66c0-2.01-1.14-3.85-2.94-4.75l-29.15-14.58v2.66c0 2.01 1.14 3.85 2.94 4.75zm26.21 16.08-24.4-12.2v2.66c0 2.01 1.14 3.85 2.94 4.75l24.4 12.2v-2.66c0-2.01-1.14-3.85-2.94-4.75zm-13.7 4.72c0 2.01 1.14 3.85 2.94 4.75l18.45 9.23v-2.66c0-2.01-1.14-3.85-2.94-4.75l-18.45-9.23zm18.45 15.48-12.51-6.26v2.66c0 2.01 1.14 3.85 2.94 4.75l12.51 6.26v-2.66c0-2.01-1.14-3.85-2.94-4.75zm67.08-41.03v-2.66l-29.15 14.58c-1.8.9-2.94 2.74-2.94 4.75v2.66l29.15-14.58c1.8-.9 2.94-2.74 2.94-4.75zm-4.75 11.29v-2.66l-24.4 12.2c-1.8.9-2.94 2.74-2.94 4.75v2.66l24.4-12.2c1.8-.9 2.94-2.74 2.94-4.75zm-10.7 14.26v-2.66l-18.45 9.23c-1.8.9-2.94 2.74-2.94 4.75v2.66l18.45-9.23c1.8-.9 2.94-2.74 2.94-4.75zm-5.94 11.88v-2.66l-12.51 6.26c-1.8.9-2.94 2.74-2.94 4.75v2.66l12.51-6.26c1.8-.9 2.94-2.74 2.94-4.75zm-21.06 26.32-2.73 1.36v11.95h15.94s0-21.26 0-21.26h-7.98c-.02.71-.13 1.43-.32 2.13-.67 2.47-2.46 4.59-4.92 5.82zm15.87-5.29h40.67c1.02 0 1.85.78 1.85 1.74 0 .58-.31 1.13-.83 1.45-2.37 1.48-9.67 5.74-19.41 8.94 1.33.43 2.3 1.68 2.3 3.16v2.66c0 1.36-.82 2.53-1.99 3.04v1.89c1.17.51 1.99 1.68 1.99 3.04v2.66c0 1.83-1.49 3.32-3.32 3.32s-3.32-1.49-3.32-3.32v-2.66c0-1.36.82-2.53 1.99-3.04v-1.89c-1.17-.51-1.99-1.68-1.99-3.04v-2.66c0-.78.27-1.49.72-2.06-5.7 1.6-12.06 2.72-18.65 2.72v-15.94zm21.92 25.91c0-.37-.3-.66-.66-.66s-.66.3-.66.66v2.66c0 .37.3.66.66.66s.66-.3.66-.66zm0-10.63c0-.37-.3-.66-.66-.66s-.66.3-.66.66v2.66c0 .37.3.66.66.66s.66-.3.66-.66zm-24.58 5.98h-15.94s0 7.97 0 7.97h6.42s4.21 4.21 4.21 4.21v14.39h13.29s0-13.5 0-13.5c-6.56-1.11-7.97-6.54-7.97-13.08zm-26.57 7.97v-7.97s-15.94 0-15.94 0c0 6.53-1.41 11.96-7.97 13.08v13.5h13.29v-14.39l4.21-4.21h6.42zm15.94 2.66h-7.97s0-26.57 0-26.57l4.2-2.1c1.69-.85 3.05-2.32 3.54-4.14.83-3.07-.64-6.16-3.33-7.5l-1.75-.88v6.64l-2.66 1.33v-13.29s0 0 0 0l4.2-2.1c1.69-.85 3.05-2.32 3.54-4.14.83-3.07-.64-6.16-3.33-7.5l-1.75-.88v6.64l-2.66 1.33v-13.29s0 0 0 0l4.2-2.1c1.69-.85 3.05-2.32 3.54-4.14.83-3.07-.64-6.16-3.33-7.5l-1.75-.88v6.64l-2.66 1.33v-11.96l4.2-2.1c1.69-.85 3.05-2.32 3.54-4.14.83-3.07-.64-6.16-3.33-7.5l-3.08-1.54-1.33-1.33c-1.27-1.28-3-1.99-4.81-1.99h-4.07c-.87 0-1.66.49-2.05 1.27-.57 1.13-.11 2.51 1.03 3.08l12.56 6.28-12.17 6.08c-1.69.84-3.05 2.31-3.54 4.14-.84 3.07.63 6.16 3.33 7.51l1.75.87v-6.64l2.66-1.33v11.96l-4.19 2.1c-1.69.84-3.05 2.31-3.54 4.14-.84 3.07.63 6.16 3.33 7.51l1.75.87v-6.64l2.66-1.33v13.29s-4.19 2.1-4.19 2.1c-1.69.84-3.05 2.31-3.54 4.14-.84 3.07.63 6.16 3.33 7.51l1.75.87v-6.64l2.66-1.33v13.29s-4.19 2.1-4.19 2.1c-1.69.84-3.05 2.31-3.54 4.14-.84 3.07.63 6.16 3.33 7.51l1.75.87v-6.64l2.66-1.33s0 23.92 0 23.92h-7.97c-1.04 1.04-1.62 1.62-2.66 2.66v10.63l2.66 2.66h21.26l2.66-2.66v-10.63c-1.04-1.04-1.62-1.62-2.66-2.66z" fill="#0033a1"/></svg>